<svg xmlns="http://www.w3.org/2000/svg" width="22.09" height="22.09" viewBox="0 0 22.09 22.09">
  <g id="Search" transform="translate(6.09)">
    <path id="Path_2" data-name="Path 2" d="M2.761,9.665a6.836,6.836,0,0,1,6.9-6.9,6.836,6.836,0,0,1,6.9,6.9,6.836,6.836,0,0,1-6.9,6.9A6.836,6.836,0,0,1,2.761,9.665ZM19.743,21.676a1.367,1.367,0,0,0,1.933-1.933l-4.28-4.28a9.453,9.453,0,0,0,1.933-5.8A9.605,9.605,0,0,0,9.665,0,9.605,9.605,0,0,0,0,9.665a9.605,9.605,0,0,0,9.665,9.665,9.453,9.453,0,0,0,5.8-1.933Z" transform="translate(-6.09)" fill="#676565"/>
  </g>
</svg>
