<svg xmlns="http://www.w3.org/2000/svg" width="67.26" height="53.275" viewBox="0 0 67.26 53.275"><defs><style>.a{fill:#707070;fill-rule:evenodd;}</style></defs><g transform="translate(1 1.889)"><g transform="translate(-1 -1.889)"><path class="a" d="M4.906,40.846c-.194-.427-.078-30-.078-34.736,0-2.254-.272-2.215.7-2.215H37.271c.466,0,22.613-.078,23.118.039.233.389.078,4.313.078,5.168,0,3.769.078,36.406-.039,36.562a16.1,16.1,0,0,1-2.8.078c-.816,0-1.36.233-1.787-.35l-2.875-3.419c-.233-.272-.389-.544-.622-.816L39.331,25.382a8.263,8.263,0,0,0-1.554-1.865l-.661,1.243c-.117.233-.194.35-.35.622-.117.194-.194.427-.311.583-.466.816-.816,1.671-1.282,2.448-.233.389-.583.855-.427,1.321s.272.894.466,1.4a24.086,24.086,0,0,1,.932,2.836c-.427-.194-.661-.661-.971-.971l-6.489-7.849c-.427-.544-.816-1.049-1.282-1.554a5.224,5.224,0,0,1-.427-.544c-.661-.777-4.352-5.362-4.779-5.75L22,17.456a.848.848,0,0,0-.155.194l-1.865,2.6c-.194.233-.35.466-.544.738L11.394,32.065c-.661,1.01-1.476,1.982-2.176,2.953L8.131,36.533c-.389.544-2.992,4.235-3.225,4.352ZM-.883,46.791a4.877,4.877,0,0,0,1.515,3.38c1.554,1.4,2.992,1.166,5.129,1.166H18.932c1.438,0,4.585-.078,5.634,0,1.2.078,2.526-.078,3.769.039.505.039,1.321-.039,1.865-.039.622,0,1.282.039,1.865.039.622,0,1.243-.039,1.865-.039,1.4,0,4.585.078,5.634,0,1.166-.078,2.564,0,3.769,0,3.613-.039,7.615,0,11.268,0,2.487,0,5.051.078,7.538,0A4.667,4.667,0,0,0,66.1,47.8a22.117,22.117,0,0,0,.155-3.613v-26.3c0-2.487-.039-5.012,0-7.538V2.808a5.242,5.242,0,0,0-.932-2.836,4.443,4.443,0,0,0-.971-.932c-1.593-1.127-2.681-.894-4.779-.894H10.656c-1.632,0-6.294-.078-7.538,0A4.486,4.486,0,0,0,.787-.844L.554-.611A4.25,4.25,0,0,0-.806,1.8,57.308,57.308,0,0,0-.961,9.141c0,2.176-.078,37.106,0,37.611Z" transform="translate(1 1.889)"/><path class="a" d="M1180.671,313.732a5.476,5.476,0,0,0-.855.233,3.625,3.625,0,0,0-.777.389,4.47,4.47,0,0,0-2.059,4.585,4.354,4.354,0,0,0,1.671,2.875,4.145,4.145,0,0,0,1.477.777,4.525,4.525,0,0,0,5.828-5.051,5.669,5.669,0,0,0-.583-1.671,4.628,4.628,0,0,0-4.662-2.137Z" transform="translate(-1131.132 -301.381)"/></g></g></svg>