<?xml version="1.0" encoding="UTF-8"?>
<!DOCTYPE svg PUBLIC "-//W3C//DTD SVG 1.1//EN" "http://www.w3.org/Graphics/SVG/1.1/DTD/svg11.dtd">
<!-- Creator: CorelDRAW 2017 -->
<svg xmlns="http://www.w3.org/2000/svg" xml:space="preserve" width="3.36641in" height="2.74986in" version="1.1" style="shape-rendering:geometricPrecision; text-rendering:geometricPrecision; image-rendering:optimizeQuality; fill-rule:evenodd; clip-rule:evenodd"
viewBox="0 0 2783 2273"
 xmlns:xlink="http://www.w3.org/1999/xlink">
 <defs>
  <style type="text/css">
   <![CDATA[
    .fil0 {fill:black}
   ]]>
  </style>
 </defs>
 <g id="Layer_x0020_1">
  <metadata id="CorelCorpID_0Corel-Layer"/>
  <g id="_1528712457760">
   <path class="fil0" d="M0 730l0 977 13 0c2,7 5,12 8,20 2,8 4,15 5,22 3,14 6,32 14,43 9,12 10,26 16,40 5,13 15,17 20,36 3,12 3,10 11,16 8,7 10,16 18,24 10,10 6,7 14,15 3,3 5,4 7,8 14,18 32,34 49,48 5,4 2,0 14,11l4 3c8,5 18,6 25,12 9,8 2,5 16,11 4,2 6,3 10,5 21,9 19,18 19,51 0,19 0,37 0,56 0,13 1,68 7,77 9,11 13,24 19,37 3,6 18,11 26,16 4,3 5,2 9,6 7,6 8,7 20,9 28,3 182,1 223,1 36,0 201,4 220,-4l17 -11c36,-22 17,-4 29,-28l8 -20c2,-6 6,-12 8,-19 2,-6 3,-17 4,-25 6,-23 -7,-82 16,-96 9,-5 32,-4 45,-11 7,-4 6,-7 16,-11 8,-4 13,-4 21,-8 8,-5 15,-15 31,-25 7,-4 8,-8 13,-15 11,-15 14,-2 25,-32 4,-10 4,-11 12,-17 10,-8 11,-25 19,-38 5,-8 8,-5 11,-16 3,-14 5,-31 15,-41 9,-8 6,-5 9,-19 10,-38 9,-21 18,-38 6,-11 8,-30 14,-42 4,-8 8,-10 11,-16 6,-12 8,-30 16,-40 15,-16 9,-20 15,-41 3,-10 7,-10 13,-16 5,-6 10,-32 15,-41 4,-8 8,-6 11,-17 2,-7 4,-15 6,-22 7,-22 15,-25 19,-37 2,-8 3,-13 7,-21 9,-18 12,-13 19,-37 5,-17 16,-31 19,-38 3,-9 4,-14 7,-22 12,-34 9,1 19,-37 2,-6 4,-16 6,-21 4,-9 8,-9 12,-17 7,-13 8,-29 17,-39 10,-11 10,-30 11,-46 1,-32 -5,-34 -22,-58 -5,-6 -6,-12 -14,-15 -25,-10 -93,-12 -109,7 -7,8 -5,7 -17,12 -12,5 -8,3 -14,13 -5,10 -10,6 -16,13 -5,5 -4,10 -11,17 -8,8 -10,4 -14,15 -8,21 -15,21 -22,34 -4,7 -4,13 -8,20 -4,8 -9,8 -13,16 -6,13 -7,31 -14,42 -4,7 -9,10 -11,16 -3,8 -4,13 -8,21 -6,9 -21,19 -37,19 -17,-10 -14,-33 -14,-56l0 -639c0,-46 2,-96 -3,-140 -2,-14 -2,-13 -12,-20 -7,-5 -6,-13 -15,-20 -9,-7 -7,-2 -21,-14 -10,-10 -50,-7 -61,-4 -14,4 -13,8 -22,14 -11,6 -15,3 -21,14 -11,20 -13,15 -17,20 -9,14 -6,131 -6,145l0 379c0,52 -4,39 -21,56 -4,4 -4,6 -8,10 -12,10 -34,4 -43,-5 -12,-12 -23,-33 -24,-51 -2,-48 0,-103 0,-152 0,-102 0,-203 0,-305 0,-40 7,-148 -13,-176 -1,-2 -17,-18 -20,-19 -8,-5 -13,-4 -25,-13 -7,-5 -19,-8 -32,-7 -13,1 -18,6 -26,10 -11,5 -30,8 -44,33 -6,10 -4,14 -12,26 -10,15 -6,120 -6,147 0,101 0,202 0,303 0,49 3,105 0,152 -1,23 -5,46 -20,56 -13,8 -33,8 -42,-4 -5,-6 -5,-5 -11,-8 -16,-9 -13,-45 -13,-62l0 -454c0,-74 3,-52 -23,-91 -7,-11 -7,-16 -32,-24 -16,-5 -27,-16 -46,-8l-40 16c-7,3 -5,5 -8,11 -14,28 -27,-8 -26,113 0,24 0,44 0,68 0,66 2,393 -1,412 -1,9 -5,13 -12,17 -11,7 -11,20 -27,22 -21,3 -31,-1 -41,-16 -13,-19 -14,-13 -16,-42 -2,-24 0,-53 0,-77 0,-50 0,-101 0,-151 0,-28 6,-159 -12,-173 -5,-4 -7,-3 -12,-8 -5,-6 -2,-15 -35,-22 -22,-5 -44,-1 -64,5 -13,4 -25,16 -33,25 -9,11 -11,26 -30,22z"/>
   <path class="fil0" d="M2783 1706l0 -975c-29,-1 -21,-16 -40,-32 -5,-4 -6,-8 -11,-11 -14,-9 -61,-14 -79,-8 -16,6 -21,4 -30,18 -10,15 -15,1 -20,26 -7,32 -6,53 -6,87l0 281c0,17 3,36 -7,48l-2 2c-5,6 -9,15 -14,20 -13,12 -42,11 -53,-5 -13,-19 -20,-5 -19,-49l0 -233c0,-38 2,-254 -1,-281 -4,-37 -3,-33 -20,-51 -18,-18 9,-12 -43,-27 -23,-7 -3,-11 -33,-3 -8,2 -11,3 -19,4 -8,1 -10,3 -17,6 -20,9 -12,10 -23,23 -23,28 -20,33 -20,72l0 390c0,38 2,79 -1,119 -2,25 -26,44 -51,39 -41,-9 -33,-61 -33,-106l0 -469c0,-21 4,-74 -6,-88 -8,-13 -7,-17 -14,-29 -12,-21 -28,-23 -41,-29 -5,-2 -8,-5 -15,-8 -27,-12 -48,8 -54,11 -25,12 -9,3 -29,19 -14,12 -15,33 -18,51 -4,24 -1,367 -1,420 0,33 3,160 -3,183 -2,9 -11,25 -17,32 -10,10 -19,14 -35,13 -8,-1 -18,-12 -29,-18 -11,-7 -13,-17 -13,-34 -3,-85 6,-481 -4,-533 -2,-12 -2,-6 -10,-13 -8,-8 -9,-21 -21,-24 -14,-4 -15,-13 -30,-17 -14,-4 -27,-5 -42,-2 -28,5 -15,7 -31,15 -23,12 -12,12 -23,23 -4,5 -9,5 -12,12 -9,26 -5,83 -5,111l0 562c0,36 2,106 0,140 -1,17 -3,25 -14,32 -7,2 -23,-6 -27,-10 0,0 -1,-1 -1,-1 -12,-10 -11,-16 -18,-30 -3,-6 -2,-3 -6,-8 -11,-14 -11,-35 -19,-50 -4,-9 -8,-5 -13,-16 -3,-6 -5,-14 -8,-20 -5,-11 -14,-13 -22,-34 -4,-10 -7,-7 -14,-15 -6,-7 -5,-12 -11,-17 -8,-7 -11,-3 -16,-13 -6,-11 -2,-8 -15,-13 -19,-7 -10,-14 -35,-21 -19,-6 -85,-5 -96,6 -1,1 -8,14 -11,17 -4,5 -8,11 -12,15 -11,14 -9,55 -3,73 2,6 8,11 11,17 7,13 7,28 17,39 10,11 11,24 16,40 4,15 6,7 12,16 7,10 8,32 15,41 8,10 14,25 18,39 4,12 4,8 11,17 11,13 6,27 22,48 2,3 4,6 5,9 6,12 6,31 15,42l10 18c7,18 5,26 17,39 12,12 8,27 14,42 4,10 13,11 20,36 7,24 13,19 19,37 2,8 4,15 6,22 10,29 11,7 25,59 3,11 7,7 13,16 4,6 5,13 7,20 8,30 2,13 14,30 7,9 8,19 12,30 3,8 8,8 13,14 8,10 10,28 21,35 13,8 10,13 29,27 8,6 27,22 34,24 10,4 11,3 19,10 35,32 68,-17 68,72 0,38 0,20 4,52 3,18 6,20 10,34 3,11 8,18 12,30 3,9 7,7 16,12 13,7 21,18 36,20 29,4 78,2 110,2 55,0 315,4 333,-3 7,-3 11,-8 17,-12 23,-15 22,-4 30,-26l6 -12c5,-10 12,-18 13,-26 1,-9 1,-17 2,-25 4,-34 2,-62 2,-95 0,-73 14,-39 43,-68 14,-14 18,-3 34,-22 4,-4 4,-3 8,-6 18,-14 34,-32 50,-48 6,-6 10,-14 17,-20 8,-8 13,-20 21,-27 8,-7 8,-4 11,-16 3,-9 7,-18 12,-25 14,-17 12,-36 24,-52 8,-11 11,-28 13,-43 3,-15 7,-31 14,-42l12 0z"/>
   <path class="fil0" d="M1640 407c17,0 32,1 48,-14 16,-15 19,-6 45,-26 8,-6 16,-8 26,-12 12,-5 9,-10 23,-15 42,-16 17,-15 50,-27 12,-4 16,-8 24,-14 8,-6 15,-7 26,-13 8,-5 10,-10 23,-16 10,-5 19,-7 24,-15 4,-6 7,-24 4,-32 -3,-10 -10,-15 -17,-21 -5,-5 -5,-6 -8,-11 -4,-5 -6,-4 -11,-8 -7,-6 -12,-16 -18,-20 -22,-16 -4,-7 -30,-28 -11,-9 -3,-7 -19,-19 -7,-5 -31,-34 -49,-8 -5,7 -2,5 -9,10 -12,9 -12,23 -21,37 -3,4 -6,6 -9,11 -5,8 -6,18 -12,27 -5,8 -9,7 -16,23 -6,13 -2,15 -13,25 -12,11 -15,33 -20,38 -4,4 -6,2 -10,9 -4,7 -8,20 -11,27 -4,10 -10,10 -16,23 -2,5 -4,9 -6,13 -4,9 -19,19 -18,39 0,8 9,19 20,19z"/>
   <path class="fil0" d="M1379 348c21,-12 31,1 39,-30 9,-36 -3,-15 16,-55 10,-23 10,-57 17,-69 21,-38 10,-62 27,-92 8,-14 20,-71 12,-87 -10,-19 -64,-13 -93,-13 -23,0 -46,0 -69,0 -30,0 -37,3 -40,28 -2,13 0,15 3,27 2,9 4,20 5,30 2,11 4,19 7,28 6,15 8,9 11,25 3,16 6,44 12,57 11,28 9,13 16,52 2,11 3,20 6,29 4,12 9,13 11,24 2,8 4,22 7,28 7,17 13,13 14,20z"/>
   <path class="fil0" d="M979 96c-14,5 -15,8 -24,15 -5,4 -6,4 -10,9 -18,21 -5,6 -19,19 -5,4 -5,6 -9,11 -6,9 -14,9 -21,19 -11,16 -12,10 -20,19 -5,6 -5,9 -13,16 -18,14 -20,48 3,59 38,17 21,16 50,27 19,7 13,8 23,15 10,7 18,7 28,12 10,6 4,10 37,21 22,8 -7,3 37,22 22,9 12,10 24,16 9,5 18,6 26,12 8,6 12,11 23,15 22,8 59,6 42,-37 -3,-7 -5,-7 -9,-11 -7,-8 -8,-18 -13,-27 -7,-13 -6,0 -15,-23 -19,-47 -9,-8 -28,-51 -8,-19 -11,-14 -16,-22 -4,-7 -6,-19 -11,-27 -6,-9 -12,-13 -16,-24 -6,-13 -4,-14 -13,-25 -6,-7 -10,-16 -14,-26 -6,-16 -11,-11 -18,-21 -5,-8 -12,-17 -26,-12z"/>
  </g>
 </g>
</svg>
