<?xml version="1.0" encoding="UTF-8"?>
<!DOCTYPE svg PUBLIC "-//W3C//DTD SVG 1.1//EN" "http://www.w3.org/Graphics/SVG/1.1/DTD/svg11.dtd">
<!-- Creator: CorelDRAW 2017 -->
<svg xmlns="http://www.w3.org/2000/svg" xml:space="preserve" width="1.61437in" height="0.945799in" version="1.1" style="shape-rendering:geometricPrecision; text-rendering:geometricPrecision; image-rendering:optimizeQuality; fill-rule:evenodd; clip-rule:evenodd"
viewBox="0 0 1022 599"
 xmlns:xlink="http://www.w3.org/1999/xlink">
 <defs>
  <style type="text/css">
   <![CDATA[
    .fil0 {fill:black}
   ]]>
  </style>
 </defs>
 <g id="Layer_x0020_1">
  <metadata id="CorelCorpID_0Corel-Layer"/>
  <g id="_1527417226704">
   <path class="fil0" d="M311 308c0,-36 4,-65 19,-94 11,-22 23,-40 40,-57l26 -22c3,-2 4,-3 7,-5 31,-19 61,-32 103,-32 42,0 81,10 113,31 17,11 15,11 27,21 16,13 32,36 42,54 9,15 22,52 22,75 0,48 2,70 -22,114 -28,52 -80,91 -137,103l-46 3c-5,0 -5,-1 -10,-1 -4,0 -9,0 -12,0 -13,-1 -26,-6 -38,-10l-40 -20c-3,-2 -5,-3 -7,-5 -28,-21 -51,-45 -67,-78 -9,-20 -19,-50 -19,-78zm-311 -8l0 0c0,-2 16,-29 18,-33 11,-17 30,-44 43,-59l23 -27c12,-16 31,-30 46,-44 28,-26 78,-58 115,-76 6,-3 11,-5 17,-8 11,-6 24,-11 36,-15 12,-4 24,-9 37,-13 120,-36 273,-34 393,14 12,5 24,9 35,15 6,3 12,5 18,8 6,3 10,5 16,9 56,31 68,45 110,80l31 31c18,22 27,30 46,56 8,10 14,20 21,31 3,5 6,11 9,16 11,21 13,10 -10,49 -17,29 -38,53 -60,78 -30,34 -64,63 -100,89 -13,9 -33,22 -47,29 -29,14 -35,19 -68,32 -47,18 -113,35 -163,37 -8,0 -17,-1 -25,0 -14,2 -90,0 -110,-3 -64,-10 -121,-25 -178,-52l-41 -22c-32,-18 -104,-73 -127,-102 -3,-3 -3,-4 -6,-7 -3,-3 -3,-4 -6,-7 -4,-5 -8,-9 -12,-13 -8,-10 -15,-19 -22,-29 -7,-10 -38,-55 -38,-63z"/>
   <path class="fil0" d="M517 362c-22,0 -33,-1 -49,-17 -5,-6 -8,-9 -12,-16 -9,-18 -9,-39 -1,-56 18,-38 70,-47 99,-19 16,16 21,25 21,49 0,13 -4,23 -11,33 -7,9 -7,8 -14,15 -9,7 -19,12 -32,12zm-143 -69c0,25 2,43 13,65 8,15 16,26 27,38 9,9 6,7 17,15 18,14 47,26 71,26 32,0 39,-1 69,-13 21,-9 23,-13 34,-23 9,-7 4,-4 12,-12 19,-20 33,-55 33,-83 0,-28 -3,-39 -12,-63 -14,-34 -51,-67 -87,-76 -27,-7 -64,-6 -90,5 -23,9 -39,22 -55,41 -3,3 -4,5 -7,9 -13,19 -25,47 -25,72z"/>
  </g>
 </g>
</svg>
